# Exported from Wings 3D 2.3
mtllib hedge_wall_corner.mtl
o Cube2
#8 vertices, 6 faces
v -0.10000000 -2.00000000 -1.0000000e-1
v -0.10000000 -2.00000000 1.0000000e-1
v -0.10000000 2.00000000 -1.0000000e-1
v -0.10000000 2.00000000 1.0000000e-1
v 0.10000000 -2.00000000 -1.0000000e-1
v 0.10000000 -2.00000000 1.0000000e-1
v 0.10000000 2.00000000 -1.0000000e-1
v 0.10000000 2.00000000 1.0000000e-1
vt 2.7313027e-2 0.18671479
vt 2.7313027e-2 0.90791837
vt 6.3373206e-2 0.18671479
vt 6.3373206e-2 0.90791837
vt 9.1374364e-2 0.90637182
vt 9.1374364e-2 0.18705582
vt 0.12734016 0.90637182
vt 0.12734016 0.18705582
vt 0.18446810 0.90734656
vt 0.18446810 0.18788936
vt 0.22044096 0.90734656
vt 0.22044096 0.18788936
vt 0.24658977 0.90700409
vt 0.24658977 0.18974223
vt 0.28245287 0.90700409
vt 0.28245287 0.18974223
vt 0.62434468 0.84104395
vt 0.62434468 0.87595380
vt 0.65925452 0.84104395
vt 0.65925452 0.87595380
vt 0.75042359 0.84169424
vt 0.75042359 0.87476739
vt 0.78349674 0.84169424
vt 0.78349674 0.87476739
vn -0.57735027 -0.57735027 -0.57735027
vn -0.57735027 -0.57735027 0.57735027
vn -0.57735027 0.57735027 -0.57735027
vn -0.57735027 0.57735027 0.57735027
vn 0.57735027 -0.57735027 -0.57735027
vn 0.57735027 -0.57735027 0.57735027
vn 0.57735027 0.57735027 -0.57735027
vn 0.57735027 0.57735027 0.57735027
g Cube2_Cube2_auv
usemtl Cube2_auv
s 1
f 1/24/1 5/22/5 6/21/6 2/23/2
f 2/16/2 4/15/4 3/13/3 1/14/1
f 2/6/2 6/8/6 8/7/8 4/5/4
f 3/11/3 7/9/7 5/10/5 1/12/1
f 4/17/4 8/19/8 7/20/7 3/18/3
f 5/3/5 7/4/7 8/2/8 6/1/6
