# Exported from Wings 3D 2.3
mtllib hedge_wall.mtl
o Cube2
#8 vertices, 6 faces
v -1.80000000 -2.00000000 -1.0000000e-1
v -1.80000000 -2.00000000 1.0000000e-1
v -1.80000000 2.00000000 -1.0000000e-1
v -1.80000000 2.00000000 1.0000000e-1
v 1.80000000 -2.00000000 -1.0000000e-1
v 1.80000000 -2.00000000 1.0000000e-1
v 1.80000000 2.00000000 -1.0000000e-1
v 1.80000000 2.00000000 1.0000000e-1
vt 1.9982456e-3 -4.5555556e-4
vt 1.9982456e-3 0.62586023
vt 0.18901627 0.34543642
vt 0.18901627 0.93776826
vt 0.21863286 0.34543642
vt 0.21863286 0.93776826
vt 0.24984357 0.93754901
vt 0.24984357 0.34478901
vt 0.27948157 0.93754901
vt 0.27948157 0.34478901
vt 0.37161792 0.71799950
vt 0.37161792 0.74950342
vt 0.37366374 0.78263450
vt 0.37366374 0.81405556
vt 0.43865917 2.6235088e-3
vt 0.43865917 0.62422561
vt 0.56568246 0.62586023
vt 0.56568246 -4.5555556e-4
vt 0.93868851 0.71799950
vt 0.93868851 0.74950342
vt 0.93924269 0.78263450
vt 0.93924269 0.81405556
vt 0.99810106 0.62422561
vt 0.99810106 2.6235088e-3
vn -0.57735027 -0.57735027 -0.57735027
vn -0.57735027 -0.57735027 0.57735027
vn -0.57735027 0.57735027 -0.57735027
vn -0.57735027 0.57735027 0.57735027
vn 0.57735027 -0.57735027 -0.57735027
vn 0.57735027 -0.57735027 0.57735027
vn 0.57735027 0.57735027 -0.57735027
vn 0.57735027 0.57735027 0.57735027
g Cube2_Cube2_auv
usemtl Cube2_auv
s 1
f 1/20/1 5/12/5 6/11/6 2/19/2
f 2/10/2 4/9/4 3/7/3 1/8/1
f 2/1/2 6/18/6 8/17/8 4/2/4
f 3/23/3 7/16/7 5/15/5 1/24/1
f 4/13/4 8/21/8 7/22/7 3/14/3
f 5/5/5 7/6/7 8/4/8 6/3/6
