# Blender 4.3.0 Beta
# www.blender.org
mtllib grass_blade_clump.mtl
o Grid
v -0.004686 0.099115 -0.014603
v -0.002512 -0.001476 -0.012690
v 0.003160 0.000055 -0.007698
v -0.002840 0.049108 -0.012978
v 0.000197 0.049947 -0.010305
vn -0.6606 -0.0000 0.7507
vt 0.703982 0.703982
vt 0.851991 0.000000
vt 1.000000 0.000000
vt 1.000000 1.000000
vt 0.000000 0.000000
s 0
usemtl grass
f 5/1/1 4/2/1 2/3/1 3/4/1
f 1/5/1 4/2/1 5/1/1
o Grid.001
v -0.014454 0.100000 0.016902
v 0.003519 0.000000 0.007396
v -0.004566 0.000000 0.011672
v -0.006567 0.050082 0.012730
v -0.010900 0.050102 0.015022
vn -0.4675 -0.0000 -0.8840
vt 0.703982 0.703982
vt 0.851991 0.000000
vt 1.000000 0.000000
vt 1.000000 1.000000
vt 0.000000 0.000000
s 0
usemtl grass2
f 10/6/2 9/7/2 7/8/2 8/9/2
f 6/10/2 9/7/2 10/6/2
o Grid.002
v 0.024684 0.100000 0.006074
v 0.004239 0.000000 -0.000433
v 0.013436 0.000000 0.002494
v 0.015712 0.050082 0.003219
v 0.020641 0.050102 0.004787
vn -0.3033 -0.0000 0.9529
vt 0.703982 0.703982
vt 0.851991 0.000000
vt 1.000000 0.000000
vt 1.000000 1.000000
vt 0.000000 0.000000
s 0
usemtl Material.001
f 15/11/3 14/12/3 12/13/3 13/14/3
f 11/15/3 14/12/3 15/11/3
o Grid.003
v 0.000306 0.100000 -0.006979
v -0.014719 0.000000 0.004507
v -0.007960 0.000000 -0.000660
v -0.006287 0.050082 -0.001938
v -0.002665 0.050102 -0.004708
vn 0.6073 -0.0000 0.7945
vt 0.703982 0.703982
vt 0.851991 0.000000
vt 1.000000 0.000000
vt 1.000000 1.000000
vt 0.000000 0.000000
s 0
usemtl Material.002
f 20/16/4 19/17/4 17/18/4 18/19/4
f 16/20/4 19/17/4 20/16/4
