# Blender 4.3.0 Beta
# www.blender.org
mtllib leaf_clump.mtl
o Grid
v 0.001617 -0.009643 0.005079
v 0.000283 -0.000036 0.000055
v 0.002983 -0.003145 0.010225
v 0.002666 -0.007635 0.009031
v 0.000954 -0.009290 0.002583
v 0.002735 -0.000831 0.009289
v 0.001521 -0.003975 0.004718
vn 0.9665 -0.0000 -0.2566
vt 0.500000 0.500000
vt 1.000000 1.000000
vt 0.500000 1.000000
vt 0.250000 0.750000
vt 0.000000 0.500000
vt 0.250000 0.250000
vt 0.500000 0.000000
vt 1.000000 0.500000
s 0
usemtl Material.003
f 7/1/1 2/2/1 6/3/1
f 7/1/1 6/3/1 3/4/1
f 7/1/1 4/5/1 1/6/1
f 5/7/1 2/8/1 7/1/1
f 5/7/1 7/1/1 1/6/1
f 4/5/1 7/1/1 3/4/1
o Grid.001
v 0.003542 -0.002202 -0.010531
v 0.000295 -0.000033 -0.000329
v 0.002128 -0.009191 -0.006088
v 0.003321 -0.006699 -0.009837
v 0.003211 0.000164 -0.009491
v 0.001371 -0.008940 -0.003710
v 0.001864 -0.003499 -0.005260
vn 0.9529 -0.0000 0.3033
vt 0.500000 0.500000
vt 1.000000 1.000000
vt 0.500000 1.000000
vt 0.250000 0.750000
vt 0.000000 0.500000
vt 0.250000 0.250000
vt 0.500000 0.000000
vt 1.000000 0.500000
s 0
usemtl Material.002
f 14/9/2 9/10/2 13/11/2
f 14/9/2 13/11/2 10/12/2
f 14/9/2 11/13/2 8/14/2
f 12/15/2 9/16/2 14/9/2
f 12/15/2 14/9/2 8/14/2
f 11/13/2 14/9/2 10/12/2
o Grid.002
v 0.001699 0.010266 -0.003984
v 0.000247 0.000187 -0.000029
v 0.001677 0.010117 0.004416
v 0.001958 0.012063 0.000194
v 0.001386 0.008092 -0.005387
v 0.001359 0.007903 0.005552
v 0.001135 0.006351 0.000094
vn -0.9898 0.1426 -0.0000
vt 0.500000 0.500000
vt 1.000000 1.000000
vt 0.500000 1.000000
vt 0.250000 0.750000
vt 0.000000 0.500000
vt 0.250000 0.250000
vt 0.500000 0.000000
vt 1.000000 0.500000
s 0
usemtl Material.001
f 21/17/3 16/18/3 20/19/3
f 21/17/3 20/19/3 17/20/3
f 21/17/3 18/21/3 15/22/3
f 19/23/3 16/24/3 21/17/3
f 19/23/3 21/17/3 15/22/3
f 18/21/3 21/17/3 17/20/3
